HIERARCHY
ROOT Hips
{
	OFFSET 0.00 0.00 0.00
	CHANNELS 6 Xposition Yposition Zposition Xrotation Yrotation Zrotation
	JOINT Spine
	{
		OFFSET 0.00000 7.06766 0.00000
		CHANNELS 3 Xrotation Yrotation Zrotation
		JOINT Head
		{
			OFFSET 0.00000 15.03989 0.00000
			CHANNELS 3 Xrotation Yrotation Zrotation
			End Site
			{
				OFFSET 0.00000 4.52755 0.00000
			}
		}
		JOINT LeftShoulder
		{
			OFFSET 0.00000 10.53037 0.00000
			CHANNELS 3 Xrotation Yrotation Zrotation
			JOINT LeftArm
			{
				OFFSET 7.02886 0.00000 0.00000
				CHANNELS 3 Xrotation Yrotation Zrotation
				JOINT LeftForeArm
				{
					OFFSET 10.79770 0.00000 0.00000
					CHANNELS 3 Yrotation Zrotation Xrotation
					JOINT LeftHand
					{
						OFFSET 7.90744 0.00000 0.00000
						CHANNELS 3 Xrotation Yrotation Zrotation
						JOINT LeftHandThumb1
						{
							OFFSET 0.00000 0.00000 0.00000
							CHANNELS 3 Xrotation Zrotation Yrotation
							End Site
							{
								OFFSET 0.00000 0.00000 3.93700
							}
						}
						End Site
						{
							OFFSET 3.93700 0.00000 0.00000
						}
					}
				}
			}
		}
		JOINT RightShoulder
		{
			OFFSET 0.00000 10.53037 0.00000
			CHANNELS 3 Xrotation Yrotation Zrotation
			JOINT RightArm
			{
				OFFSET -7.02886 0.00000 0.00000
				CHANNELS 3 Xrotation Yrotation Zrotation
				JOINT RightForeArm
				{
					OFFSET -10.79770 0.00000 0.00000
					CHANNELS 3 Yrotation Zrotation Xrotation
					JOINT RightHand
					{
						OFFSET -7.90744 0.00000 0.00000
						CHANNELS 3 Xrotation Yrotation Zrotation
						JOINT RightHandThumb1
						{
							OFFSET 0.00000 0.00000 0.00000
							CHANNELS 3 Xrotation Zrotation Yrotation
							End Site
							{
								OFFSET 0.00000 0.00000 3.93700
							}
						}
						End Site
						{
							OFFSET -3.93700 0.00000 0.00000
						}
					}
				}
			}
		}
	}
	JOINT LeftUpLeg
	{
		OFFSET 4.01300 0.00000 0.00000
		CHANNELS 3 Xrotation Yrotation Zrotation
		JOINT LeftLeg
		{
			OFFSET 0.00000 -16.89976 0.00000
			CHANNELS 3 Xrotation Yrotation Zrotation
			JOINT LeftFoot
			{
				OFFSET 0.00000 -17.38918 0.00000
				CHANNELS 3 Xrotation Yrotation Zrotation
				JOINT LeftToeBase
				{
					OFFSET 0.00000 -1.27456 4.75673
					CHANNELS 3 Xrotation Yrotation Zrotation
					End Site
					{
						OFFSET 0.00000 0.00000 2.95275
					}
				}
			}
		}
	}
	JOINT RightUpLeg
	{
		OFFSET -4.01300 0.00000 0.00000
		CHANNELS 3 Xrotation Yrotation Zrotation
		JOINT RightLeg
		{
			OFFSET 0.00000 -16.89976 0.00000
			CHANNELS 3 Xrotation Yrotation Zrotation
			JOINT RightFoot
			{
				OFFSET 0.00000 -17.38918 0.00000
				CHANNELS 3 Xrotation Yrotation Zrotation
				JOINT RightToeBase
				{
					OFFSET 0.00000 -1.27456 4.75673
					CHANNELS 3 Xrotation Yrotation Zrotation
					End Site
					{
						OFFSET 0.00000 0.00000 2.95275
					}
				}
			}
		}
	}
}
MOTION
Frames: 22
Frame Time: 0.008333
 23.8590 15.1319 -12.5359 171.8253 10.4739 -155.7693 22.3574 9.2237 53.1173 0.6129 26.0516 24.4673 -47.4992 -33.8961 36.2591 -4.6994 -43.8389 18.1998 4.1802 0.0000 22.6705 -1.6961 9.5567 10.1125 33.1476 -0.0000 26.2537 -4.4919 -9.4232 -5.5477 -35.0108 -31.9294 49.6279 66.2051 0.0000 18.5123 -15.6465 -4.4657 -74.4640 32.8623 0.0000 -24.3270 -19.3828 26.0695 42.2897 -0.1633 0.0000 0.0000 4.7681 21.3950 -20.3199 44.5369 0.0000 -0.0000 -106.9703 12.1419 -14.0890 133.0638 0.0000 0.0000 -65.3380 -40.0250 -31.2297 21.7767 -0.0000 0.0000
 23.8579 15.1365 -12.5326 171.8346 10.4714 -155.7804 22.3302 9.2092 53.1501 0.6087 26.0112 24.4923 -47.5666 -34.0045 36.2302 -4.6108 -43.8172 18.1841 4.1665 0.0000 22.7377 -1.7249 9.6052 10.2304 33.1476 -0.0000 26.2537 -4.4264 -9.4345 -5.5024 -35.1230 -31.8996 49.5732 66.2299 0.0000 18.5491 -15.6537 -4.4806 -74.4221 32.8623 0.0000 -24.3270 -19.3777 26.0376 42.2894 -0.1411 -0.0000 -0.0000 4.7717 21.3945 -20.2851 44.5161 0.0000 -0.0000 -106.9665 12.1141 -14.1169 133.0462 -0.0000 0.0000 -65.2735 -40.0150 -31.2455 22.1211 0.0000 -0.0000
 23.8563 15.1425 -12.5301 171.8405 10.4778 -155.7829 22.3011 9.2000 53.1808 0.6163 25.9880 24.4941 -47.5221 -33.9981 36.2166 -4.6155 -43.8380 18.2312 4.1468 0.0000 22.8625 -1.6829 9.5596 10.0324 33.1476 -0.0000 26.2537 -4.4522 -9.4057 -5.4693 -35.1043 -31.8431 49.4763 66.2600 0.0000 18.5168 -15.6572 -4.4614 -74.4890 32.8623 0.0000 -24.3270 -19.4091 26.0869 42.2948 -0.1581 -0.0000 -0.0000 4.7944 21.3576 -20.2873 44.5211 -0.0000 0.0000 -106.9568 12.1124 -14.1341 133.0268 0.0000 0.0000 -65.2702 -40.0268 -31.2641 21.8198 -0.0000 0.0000
 23.8535 15.1487 -12.5284 171.8443 10.4793 -155.7675 22.2689 9.1674 53.1994 0.6616 25.9856 24.4750 -47.4730 -33.9896 36.1846 -4.5500 -43.8698 18.3164 4.2053 0.0000 22.7511 -1.6893 9.4997 10.1317 33.1476 -0.0000 26.2537 -4.4442 -9.3910 -5.5112 -35.1643 -31.9021 49.4918 66.2151 0.0000 18.6392 -15.6718 -4.4624 -74.5001 32.8623 0.0000 -24.3270 -19.4253 26.1166 42.2775 -0.1513 0.0000 -0.0000 4.7916 21.3366 -20.3053 44.5474 0.0000 -0.0000 -106.9639 12.1146 -14.1455 133.0317 0.0000 -0.0000 -65.2135 -40.0596 -31.1492 21.6627 0.0000 -0.0000
 23.8498 15.1550 -12.5271 171.8568 10.4748 -155.7521 22.2563 9.1488 53.2121 0.6421 25.9615 24.4594 -47.4623 -34.0087 36.1780 -4.5796 -43.8709 18.3150 4.1960 0.0000 22.7123 -1.6692 9.3591 10.1592 33.1476 -0.0000 26.2537 -4.5051 -9.3965 -5.5655 -35.1614 -31.9373 49.5209 66.1602 0.0000 18.7164 -15.6681 -4.4604 -74.5030 32.8623 0.0000 -24.3270 -19.4072 26.1025 42.2428 -0.1309 -0.0000 0.0000 4.7770 21.3464 -20.3073 44.5133 -0.0000 -0.0000 -106.9498 12.1399 -14.1867 133.0145 0.0000 -0.0000 -65.1843 -40.0332 -31.1394 21.7614 0.0000 0.0000
 23.8422 15.1616 -12.5295 171.8865 10.4612 -155.6812 22.2595 9.0936 53.1571 0.5975 25.9361 24.4985 -47.5007 -34.0652 36.1638 -4.5808 -43.8972 18.2779 4.2094 0.0000 22.7116 -1.6845 9.3852 10.2231 33.1476 -0.0000 26.2537 -4.5319 -9.3841 -5.5626 -35.1649 -31.9599 49.4904 66.1509 0.0000 18.7372 -15.6713 -4.4762 -74.4541 32.8623 0.0000 -24.3270 -19.3583 26.1259 42.1374 -0.1238 -0.0000 -0.0000 4.7446 21.3298 -20.2810 44.5785 -0.0000 0.0000 -106.9369 12.2402 -14.2428 133.0137 0.0000 0.0000 -65.1228 -40.0301 -31.0376 21.6898 0.0000 0.0000
 23.8415 15.1700 -12.5281 171.8971 10.4743 -155.6790 22.2676 9.1002 53.1770 0.5559 25.9278 24.4989 -47.5221 -34.0763 36.1433 -4.5683 -43.9087 18.2913 4.2025 0.0000 22.6972 -1.6814 9.4338 10.1538 33.1476 -0.0000 26.2537 -4.5928 -9.3571 -5.6032 -35.1416 -31.9868 49.4803 66.1277 0.0000 18.7791 -15.7085 -4.4912 -74.4416 32.8623 0.0000 -24.3270 -19.3562 26.1455 42.1297 -0.1138 0.0000 -0.0000 4.7568 21.3118 -20.3048 44.5844 -0.0000 0.0000 -106.9110 12.2300 -14.2639 132.9887 -0.0000 0.0000 -65.0975 -40.0266 -31.0067 21.7438 0.0000 0.0000
 23.8356 15.1769 -12.5311 171.9263 10.4854 -155.6159 22.2882 9.0749 53.1177 0.5114 25.8855 24.5324 -47.5420 -34.1127 36.1393 -4.5393 -43.9090 18.3001 4.1818 0.0000 22.7010 -1.6724 9.4987 10.0332 33.1476 -0.0000 26.2537 -4.6779 -9.2816 -5.5780 -35.0119 -32.0170 49.3763 66.2154 0.0000 18.7200 -15.6927 -4.5168 -74.3417 32.8623 0.0000 -24.3270 -19.2934 26.1839 42.0405 -0.1137 0.0000 0.0000 4.7350 21.2912 -20.2855 44.5974 0.0000 -0.0000 -106.8901 12.3063 -14.3026 132.9873 0.0000 0.0000 -65.0346 -39.9799 -30.9076 22.0138 0.0000 -0.0000
 23.8326 15.1847 -12.5323 171.9424 10.4881 -155.5823 22.2857 9.0609 53.1029 0.4777 25.8591 24.5460 -47.5406 -34.1173 36.1331 -4.5254 -43.9160 18.3163 4.1774 0.0000 22.6918 -1.6626 9.5043 9.9698 33.1476 -0.0000 26.2537 -4.6828 -9.3004 -5.5968 -35.0683 -32.0303 49.3773 66.1559 0.0000 18.8114 -15.7317 -4.5398 -74.3051 32.8623 0.0000 -24.3270 -19.2551 26.1932 41.9816 -0.1089 -0.0000 -0.0000 4.7324 21.2843 -20.2556 44.5875 -0.0000 0.0000 -106.8716 12.3476 -14.3352 132.9750 -0.0000 -0.0000 -65.0254 -39.9833 -30.9184 21.6497 0.0000 -0.0000
 23.8276 15.1941 -12.5357 171.9711 10.5028 -155.5304 22.3089 9.0509 53.0684 0.4459 25.8171 24.5374 -47.5544 -34.1361 36.1285 -4.5021 -43.8908 18.3283 4.1585 0.0000 22.6959 -1.6571 9.4886 9.9533 33.1476 -0.0000 26.2537 -4.6689 -9.3265 -5.5965 -35.1435 -31.9877 49.3521 66.0803 0.0000 18.8574 -15.7606 -4.5275 -74.3742 32.8623 0.0000 -24.3270 -19.1825 26.2135 41.8972 -0.0983 -0.0000 0.0000 4.7364 21.2607 -20.2437 44.4918 0.0000 -0.0000 -106.8365 12.4078 -14.3754 132.9635 0.0000 0.0000 -64.9907 -39.9651 -30.8671 21.6785 0.0000 0.0000
 23.8255 15.2034 -12.5368 171.9824 10.5123 -155.5126 22.3193 9.0622 53.0676 0.4017 25.7627 24.5259 -47.5710 -34.1474 36.1519 -4.4877 -43.8521 18.3152 4.1319 0.0000 22.6941 -1.6646 9.5070 9.9786 33.1476 -0.0000 26.2537 -4.6643 -9.3503 -5.5803 -35.1816 -31.9306 49.3103 66.0553 0.0000 18.8541 -15.7557 -4.5330 -74.3512 32.8623 0.0000 -24.3270 -19.1670 26.2251 41.8671 -0.0748 -0.0000 -0.0000 4.7180 21.2640 -20.2555 44.5330 -0.0000 0.0000 -106.8009 12.4208 -14.4131 132.9309 0.0000 0.0000 -64.9844 -39.9299 -30.8951 21.7476 -0.0000 -0.0000
 23.8223 15.2122 -12.5400 171.9962 10.5065 -155.4826 22.3138 9.0377 53.0600 0.3758 25.7509 24.5423 -47.5700 -34.1882 36.1540 -4.4147 -43.7811 18.3505 4.1212 0.0000 22.7556 -1.7200 9.5831 10.2251 33.1476 -0.0000 26.2537 -4.6718 -9.3517 -5.5683 -35.1929 -31.8674 49.2472 66.0008 0.0000 18.8514 -15.7522 -4.5179 -74.3971 32.8623 0.0000 -24.3270 -19.1239 26.2166 41.8061 -0.0630 0.0000 0.0000 4.7183 21.2796 -20.2570 44.5455 0.0000 -0.0000 -106.7788 12.4549 -14.4622 132.9183 0.0000 -0.0000 -64.9545 -39.9261 -30.8411 21.6363 -0.0000 0.0000
 23.8197 15.2204 -12.5431 172.0066 10.5134 -155.4628 22.3186 9.0312 53.0584 0.3625 25.7217 24.5237 -47.5523 -34.1745 36.1639 -4.4012 -43.7503 18.3763 4.1118 0.0000 22.7816 -1.7066 9.5983 10.1315 33.1476 -0.0000 26.2537 -4.6402 -9.3816 -5.5668 -35.2585 -31.8020 49.2285 65.9313 0.0000 18.8475 -15.7563 -4.5049 -74.4437 32.8623 0.0000 -24.3270 -19.1110 26.2379 41.7755 -0.0456 -0.0000 -0.0000 4.7122 21.2573 -20.2600 44.5125 0.0000 0.0000 -106.7537 12.4740 -14.5019 132.9052 -0.0000 -0.0000 -64.9182 -39.9081 -30.7955 21.5960 0.0000 -0.0000
 23.8173 15.2301 -12.5462 172.0090 10.5131 -155.4519 22.3115 9.0245 53.0711 0.3400 25.7015 24.5204 -47.5548 -34.1874 36.1665 -4.4124 -43.7150 18.3610 4.1196 0.0000 22.7617 -1.6969 9.4929 10.1831 33.1476 -0.0000 26.2537 -4.6285 -9.3950 -5.5843 -35.3136 -31.7737 49.2114 65.8532 0.0000 18.8714 -15.7598 -4.4987 -74.4675 32.8623 0.0000 -24.3270 -19.1023 26.2418 41.7479 -0.0275 0.0000 -0.0000 4.6979 21.2607 -20.2464 44.5471 0.0000 -0.0000 -106.7249 12.4844 -14.5364 132.8786 -0.0000 0.0000 -64.9022 -39.8913 -30.8182 21.7168 -0.0000 0.0000
 23.8158 15.2385 -12.5504 172.0108 10.5177 -155.4473 22.3101 9.0096 53.0886 0.3525 25.6914 24.4971 -47.5614 -34.1996 36.1533 -4.4691 -43.6903 18.3167 4.1113 0.0000 22.8163 -1.7037 9.5225 10.1923 33.1476 -0.0000 26.2537 -4.5807 -9.3832 -5.6042 -35.3932 -31.7802 49.1943 65.7965 0.0000 18.8769 -15.7565 -4.5092 -74.4299 32.8623 0.0000 -24.3270 -19.0962 26.2575 41.7297 -0.0211 -0.0000 -0.0000 4.7086 21.2731 -20.2462 44.4967 -0.0000 0.0000 -106.7006 12.4885 -14.5706 132.8672 -0.0000 -0.0000 -64.8789 -39.8870 -30.7730 21.6066 0.0000 -0.0000
 23.8141 15.2462 -12.5544 172.0209 10.5135 -155.4428 22.3129 9.0012 53.0997 0.3186 25.6627 24.5058 -47.5856 -34.2305 36.1575 -4.5173 -43.6435 18.2645 4.0869 0.0000 22.8003 -1.6947 9.5763 10.0844 33.1476 -0.0000 26.2537 -4.6194 -9.3905 -5.6263 -35.3977 -31.7684 49.1820 65.7355 0.0000 18.8961 -15.7647 -4.5133 -74.4245 32.8623 0.0000 -24.3270 -19.0863 26.2534 41.7103 -0.0055 -0.0000 0.0000 4.7128 21.2818 -20.2364 44.5185 -0.0000 -0.0000 -106.6640 12.5006 -14.6115 132.8546 0.0000 0.0000 -64.8666 -39.8951 -30.7067 21.6367 0.0000 -0.0000
 23.8122 15.2536 -12.5597 172.0228 10.5108 -155.4315 22.2982 8.9838 53.1087 0.3281 25.6434 24.4984 -47.5655 -34.2252 36.1614 -4.5789 -43.6217 18.2263 4.1231 0.0000 22.7280 -1.7206 9.6594 10.1501 33.1476 -0.0000 26.2537 -4.5962 -9.3801 -5.6359 -35.4627 -31.7894 49.1449 65.6887 0.0000 18.9167 -15.7592 -4.5180 -74.4036 32.8623 0.0000 -24.3270 -19.0620 26.2490 41.6776 0.0024 -0.0000 -0.0000 4.7221 21.3003 -20.2630 44.4551 0.0000 -0.0000 -106.6364 12.5186 -14.6430 132.8433 0.0000 -0.0000 -64.8567 -39.8836 -30.7016 21.6508 0.0000 -0.0000
 23.8071 15.2596 -12.5667 172.0344 10.5029 -155.3999 22.3068 8.9496 53.0861 0.3028 25.6305 24.5147 -47.5182 -34.1854 36.1917 -4.6586 -43.6098 18.2178 4.1326 0.0000 22.6851 -1.6751 9.5656 9.9810 33.1476 -0.0000 26.2537 -4.5973 -9.3651 -5.6355 -35.5027 -31.8058 49.1048 65.6452 0.0000 18.9665 -15.7866 -4.5325 -74.3834 32.8623 0.0000 -24.3270 -19.0264 26.2654 41.6172 -0.0058 -0.0000 -0.0000 4.6903 21.3051 -20.1722 44.4729 -0.0000 -0.0000 -106.6127 12.5743 -14.6886 132.8437 0.0000 -0.0000 -64.8154 -39.8560 -30.6649 21.6883 -0.0000 0.0000
 23.8042 15.2666 -12.5736 172.0289 10.5090 -155.3750 22.2970 8.9325 53.0791 0.3372 25.6024 24.4919 -47.5347 -34.1762 36.1581 -4.6210 -43.5937 18.2531 4.1454 0.0000 22.6782 -1.6598 9.5090 9.9486 33.1476 -0.0000 26.2537 -4.9833 -9.2653 -5.7273 -35.0772 -31.8403 49.0516 65.6202 0.0000 18.9189 -15.7780 -4.5275 -74.3914 32.8623 0.0000 -24.3270 -19.0125 26.3028 41.5817 -0.0121 -0.0000 -0.0000 4.6898 21.3038 -20.1653 44.4817 0.0000 -0.0000 -106.5950 12.6108 -14.6982 132.8391 -0.0000 -0.0000 -64.8064 -39.8655 -30.6304 21.5870 0.0000 -0.0000
 23.8023 15.2736 -12.5799 172.0166 10.5178 -155.3730 22.2804 8.9409 53.0911 0.3170 25.5936 24.4958 -47.5422 -34.1934 36.1607 -4.6255 -43.5259 18.2378 4.1277 0.0000 22.6348 -1.7000 9.6878 10.0022 33.1476 -0.0000 26.2537 -5.1370 -9.2342 -5.7697 -34.9320 -31.8419 49.0045 65.5759 0.0000 18.9041 -15.7883 -4.5322 -74.3861 32.8623 0.0000 -24.3270 -19.0152 26.3284 41.5771 -0.0116 0.0000 -0.0000 4.7003 21.3015 -20.1758 44.4328 -0.0000 -0.0000 -106.5649 12.6197 -14.7149 132.8098 -0.0000 -0.0000 -64.8214 -39.8447 -30.6817 21.6272 -0.0000 0.0000
 23.8003 15.2797 -12.5856 171.9975 10.5231 -155.3732 22.2665 8.9457 53.0972 0.2923 25.5649 24.4991 -47.6071 -34.2199 36.1466 -4.6064 -43.4927 18.1990 4.1397 0.0000 22.6794 -1.6837 9.5715 10.0253 33.1476 -0.0000 26.2537 -5.1961 -9.2157 -5.7943 -34.8878 -31.8301 48.9677 65.5181 0.0000 18.8757 -15.8271 -4.5355 -74.4136 32.8623 0.0000 -24.3270 -19.0138 26.3406 41.5703 -0.0158 -0.0000 -0.0000 4.6933 21.3290 -20.1744 44.4809 0.0000 -0.0000 -106.5456 12.6235 -14.7278 132.7960 0.0000 0.0000 -64.8174 -39.8288 -30.6596 21.5957 0.0000 0.0000
 23.7986 15.2852 -12.5930 171.9798 10.5263 -155.3760 22.2455 8.9374 53.1125 0.3189 25.5317 24.4806 -47.5907 -34.1494 36.1408 -4.6442 -43.5236 18.2014 4.1802 0.0000 22.6876 -1.6604 9.4985 9.9630 33.1476 -0.0000 26.2537 -5.2250 -9.2070 -5.8275 -34.8693 -31.8195 48.9528 65.4407 0.0000 18.8516 -15.8187 -4.5226 -74.4477 32.8623 0.0000 -24.3270 -19.0112 26.3608 41.5670 -0.0296 0.0000 -0.0000 4.6920 21.3355 -20.1845 44.4557 0.0000 -0.0000 -106.5357 12.6277 -14.7303 132.8008 0.0000 0.0000 -64.7870 -39.8546 -30.5836 21.6721 -0.0000 0.0000
